<svg xmlns="http://www.w3.org/2000/svg" viewBox="0 0 450 450" preserveAspectRatio="xMidYMid meet">
  <g transform="translate(0 450) scale(.1 -.1)">
    <path d="M2451 3574c201-59 348-241 366-455 24-287-210-539-501-539-152 0-246 40-357 150-87 87-123 153-147 272-14 71-14 85 2 164 22 113 57 183 129 261 65 69 139 116 226 144 72 23 208 25 282 3z"/>
    <path d="M1238 3218c80-30 180-130 212-213 36-90 35-219-2-298-38-80-117-160-197-200-59-29-74-32-156-32-113 1-183 26-258 95-136 124-170 313-85 473 51 95 157 175 262 197 58 13 157 3 224-22z"/>
    <path d="M3699 3208c83-40 145-102 184-186 29-61 32-76 32-162 0-86-3-101-32-162-40-84-107-151-193-192-58-28-75-31-156-31-84 0-95 2-166 38-88 43-147 102-187 187-22 48-26 68-26 160 0 96 2 110 28 160 41 78 87 130 148 167 119 71 250 79 368 21z"/>
    <path d="M2595 2430c107-24 264-99 347-164 82-66 151-153 203-258 71-145 77-182 82-433 4-247 0-268-66-312l-34-23h-811c-767 0-813 1-845 18-68 37-73 58-68 322 3 211 6 242 26 305 103 315 354 516 706 564 107 15 354 5 460-19z"/>
    <path d="M1266 2355c85-15 224-69 224-86 0-5-21-37-46-71-59-79-118-204-146-305-16-60-22-118-25-250l-5-173h-375c-406 0-417 1-441 55-18 40-16 346 3 420 57 221 252 384 500 418 73 10 230 6 311-8z"/>
    <path d="M3755 2346c195-53 344-187 406-366 18-54 23-93 27-229 5-182-3-228-45-260-25-20-38-21-404-21h-379v108c0 267-57 461-183 627-45 59-45 60-26 75 32 25 129 60 209 75 96 18 312 13 395-9z"/>
  </g>
</svg>
