<svg xmlns="http://www.w3.org/2000/svg" viewBox="0 0 300 300" preserveAspectRatio="xMidYMid meet">
  <g transform="translate(0 300) scale(.1 -.1)">
    <path d="M1207 2269c284-90 320-90 617 1 132 41 184 48 233 29 38-14 81-56 105-103 19-37 163-589 170-651 3-28-1-31-53-52-73-29-227-69-359-93-312-56-618-49-935 21-89 20-258 72-284 88-11 7-5 45 33 202 65 269 115 448 136 489 19 36 60 79 95 98 38 21 112 13 242-29z"/>
    <path d="M610 1450c0-5-5-31-11-59-14-67-2-86 75-121 183-83 553-150 831-150 229 0 543 50 763 122 158 51 166 59 158 150l-7 69 28-7c229-50 375-161 343-259-44-133-434-276-930-341-419-55-979 10-1357 157-217 85-298 172-248 268 30 59 100 103 242 151 95 32 113 35 113 20z"/>
  </g>
</svg>
